<mxfile host="65bd71144e">
    <diagram id="xmSoYySO6E9WSGa7tBBv" name="Page-1">
        <mxGraphModel dx="991" dy="670" grid="1" gridSize="10" guides="1" tooltips="1" connect="1" arrows="1" fold="1" page="1" pageScale="1" pageWidth="850" pageHeight="1100" math="0" shadow="0">
            <root>
                <mxCell id="0"/>
                <mxCell id="1" parent="0"/>
                <mxCell id="3" value="&lt;b&gt;&lt;font style=&quot;font-size: 15px&quot; color=&quot;#000000&quot;&gt;May the odds be in your favour....&lt;/font&gt;&lt;/b&gt;" style="rounded=1;whiteSpace=wrap;html=1;fontFamily=Times New Roman;fillColor=#1ba1e2;strokeColor=#006EAF;fontColor=#ffffff;" parent="1" vertex="1">
                    <mxGeometry x="215" y="85" width="370" height="30" as="geometry"/>
                </mxCell>
                <mxCell id="4" value="&lt;font color=&quot;#ff6666&quot; style=&quot;font-size: 40px&quot;&gt;PIG GAME&lt;/font&gt;" style="text;html=1;align=center;verticalAlign=middle;resizable=0;points=[];autosize=1;strokeColor=none;fontFamily=Times New Roman;" parent="1" vertex="1">
                    <mxGeometry x="295" y="40" width="210" height="30" as="geometry"/>
                </mxCell>
                <mxCell id="5" value="" style="rounded=1;whiteSpace=wrap;html=1;fillColor=#e51400;strokeColor=#B20000;fontColor=#ffffff;" vertex="1" parent="1">
                    <mxGeometry x="40" y="130" width="360" height="320" as="geometry"/>
                </mxCell>
                <mxCell id="6" value="&lt;font style=&quot;font-size: 20px&quot; color=&quot;#000000&quot;&gt;&lt;b&gt;PLAYER 1&lt;/b&gt;&lt;/font&gt;" style="text;html=1;strokeColor=none;fillColor=none;align=center;verticalAlign=middle;whiteSpace=wrap;rounded=0;" vertex="1" parent="1">
                    <mxGeometry x="160" y="160" width="120" height="20" as="geometry"/>
                </mxCell>
                <mxCell id="7" value="&lt;b&gt;&lt;font color=&quot;#000000&quot; style=&quot;font-size: 35px&quot;&gt;0&lt;/font&gt;&lt;/b&gt;" style="text;html=1;strokeColor=none;fillColor=none;align=center;verticalAlign=middle;whiteSpace=wrap;rounded=0;" vertex="1" parent="1">
                    <mxGeometry x="190" y="200" width="60" height="40" as="geometry"/>
                </mxCell>
                <mxCell id="8" value="" style="rounded=1;whiteSpace=wrap;html=1;fillColor=#bac8d3;strokeColor=#23445d;" vertex="1" parent="1">
                    <mxGeometry x="160" y="290" width="120" height="120" as="geometry"/>
                </mxCell>
                <mxCell id="9" value="Current" style="text;html=1;strokeColor=none;fillColor=none;align=center;verticalAlign=middle;whiteSpace=wrap;rounded=0;fontSize=18;fontColor=#000000;" vertex="1" parent="1">
                    <mxGeometry x="195" y="310" width="50" height="20" as="geometry"/>
                </mxCell>
                <mxCell id="10" value="0" style="text;html=1;strokeColor=none;fillColor=none;align=center;verticalAlign=middle;whiteSpace=wrap;rounded=0;fontSize=20;fontColor=#000000;" vertex="1" parent="1">
                    <mxGeometry x="200" y="350" width="40" height="20" as="geometry"/>
                </mxCell>
                <mxCell id="12" value="" style="rounded=1;whiteSpace=wrap;html=1;fillColor=#ffcd28;strokeColor=#d79b00;gradientColor=#ffa500;" vertex="1" parent="1">
                    <mxGeometry x="400" y="130" width="360" height="320" as="geometry"/>
                </mxCell>
                <mxCell id="13" value="&lt;font style=&quot;font-size: 20px&quot; color=&quot;#000000&quot;&gt;&lt;b&gt;PLAYER 2&lt;/b&gt;&lt;/font&gt;" style="text;html=1;strokeColor=none;fillColor=none;align=center;verticalAlign=middle;whiteSpace=wrap;rounded=0;" vertex="1" parent="1">
                    <mxGeometry x="520" y="160" width="120" height="20" as="geometry"/>
                </mxCell>
                <mxCell id="14" value="&lt;b&gt;&lt;font color=&quot;#000000&quot; style=&quot;font-size: 35px&quot;&gt;0&lt;/font&gt;&lt;/b&gt;" style="text;html=1;strokeColor=none;fillColor=none;align=center;verticalAlign=middle;whiteSpace=wrap;rounded=0;" vertex="1" parent="1">
                    <mxGeometry x="550" y="200" width="60" height="40" as="geometry"/>
                </mxCell>
                <mxCell id="15" value="" style="rounded=1;whiteSpace=wrap;html=1;fillColor=#bac8d3;strokeColor=#23445d;" vertex="1" parent="1">
                    <mxGeometry x="520" y="290" width="120" height="120" as="geometry"/>
                </mxCell>
                <mxCell id="16" value="Current" style="text;html=1;strokeColor=none;fillColor=none;align=center;verticalAlign=middle;whiteSpace=wrap;rounded=0;fontSize=18;fontColor=#000000;" vertex="1" parent="1">
                    <mxGeometry x="555" y="310" width="50" height="20" as="geometry"/>
                </mxCell>
                <mxCell id="17" value="0" style="text;html=1;strokeColor=none;fillColor=none;align=center;verticalAlign=middle;whiteSpace=wrap;rounded=0;fontSize=20;fontColor=#000000;" vertex="1" parent="1">
                    <mxGeometry x="560" y="350" width="40" height="20" as="geometry"/>
                </mxCell>
                <mxCell id="18" value="" style="rounded=1;whiteSpace=wrap;html=1;fontSize=20;gradientColor=#d5739d;fillColor=#e6d0de;strokeColor=#996185;" vertex="1" parent="1">
                    <mxGeometry x="350" y="380" width="100" height="40" as="geometry"/>
                </mxCell>
                <mxCell id="19" value="Roll" style="text;html=1;strokeColor=none;fillColor=none;align=center;verticalAlign=middle;whiteSpace=wrap;rounded=0;fontSize=20;fontColor=#000000;" vertex="1" parent="1">
                    <mxGeometry x="380" y="390" width="40" height="20" as="geometry"/>
                </mxCell>
                <mxCell id="20" value="" style="rounded=1;whiteSpace=wrap;html=1;fontSize=20;gradientColor=#97d077;fillColor=#d5e8d4;strokeColor=#82b366;" vertex="1" parent="1">
                    <mxGeometry x="350" y="450" width="100" height="40" as="geometry"/>
                </mxCell>
                <mxCell id="21" value="Pass" style="text;html=1;strokeColor=none;fillColor=none;align=center;verticalAlign=middle;whiteSpace=wrap;rounded=0;fontSize=20;fontColor=#000000;" vertex="1" parent="1">
                    <mxGeometry x="380" y="460" width="40" height="20" as="geometry"/>
                </mxCell>
                <mxCell id="22" style="edgeStyle=orthogonalEdgeStyle;rounded=0;orthogonalLoop=1;jettySize=auto;html=1;exitX=1;exitY=0.75;exitDx=0;exitDy=0;entryX=1;entryY=1;entryDx=0;entryDy=0;fontSize=20;fontColor=#000000;" edge="1" parent="1" source="19" target="19">
                    <mxGeometry relative="1" as="geometry"/>
                </mxCell>
                <mxCell id="23" value="" style="rounded=1;whiteSpace=wrap;html=1;fontSize=20;gradientColor=#b3b3b3;fillColor=#f5f5f5;strokeColor=#666666;" vertex="1" parent="1">
                    <mxGeometry x="20" y="40" width="100" height="40" as="geometry"/>
                </mxCell>
                <mxCell id="24" value="Restart" style="text;html=1;strokeColor=none;fillColor=none;align=center;verticalAlign=middle;whiteSpace=wrap;rounded=0;fontSize=20;fontColor=#000000;" vertex="1" parent="1">
                    <mxGeometry x="50" y="50" width="40" height="20" as="geometry"/>
                </mxCell>
            </root>
        </mxGraphModel>
    </diagram>
</mxfile>